HIERARCHY
ROOT Hips
{
  OFFSET -33.2725 92.9907 47.6292
  CHANNELS 6 Xposition Yposition Zposition Zrotation Xrotation Yrotation
  JOINT Spine
  {
    OFFSET 0 8 0
    CHANNELS 6 Xposition Yposition Zposition Zrotation Xrotation Yrotation
    JOINT Spine1
    {
      OFFSET 0 8 0
      CHANNELS 6 Xposition Yposition Zposition Zrotation Xrotation Yrotation
      JOINT Spine2
      {
        OFFSET 0 8 0
        CHANNELS 6 Xposition Yposition Zposition Zrotation Xrotation Yrotation
        JOINT Spine3
        {
          OFFSET 0 8 0
          CHANNELS 6 Xposition Yposition Zposition Zrotation Xrotation Yrotation
          JOINT Neck
          {
            OFFSET 0 17.0001 0
            CHANNELS 6 Xposition Yposition Zposition Zrotation Xrotation Yrotation
            JOINT Head
            {
              OFFSET 0 10.8 0
              CHANNELS 6 Xposition Yposition Zposition Zrotation Xrotation Yrotation
              End Site
              {
                OFFSET 0 20.25 0
              }
            }
          }
          JOINT LeftShoulder
          {
            OFFSET 5 17 -0.00113449
            CHANNELS 6 Xposition Yposition Zposition Zrotation Xrotation Yrotation
            JOINT LeftShoulder2
            {
              OFFSET 6.45 0 0
              CHANNELS 6 Xposition Yposition Zposition Zrotation Xrotation Yrotation
              JOINT LeftArm
              {
                OFFSET 6.45 0 3.09442e-05
                CHANNELS 6 Xposition Yposition Zposition Zrotation Xrotation Yrotation
                JOINT LeftForeArm
                {
                  OFFSET 0 -32.4 -2
                  CHANNELS 6 Xposition Yposition Zposition Zrotation Xrotation Yrotation
                  JOINT LeftHand
                  {
                    OFFSET -1.06834e-05 -25.65 2.00001
                    CHANNELS 6 Xposition Yposition Zposition Zrotation Xrotation Yrotation
                    JOINT LeftHandThumb1
                    {
                      OFFSET -0.499995 -1.5 2.65
                      CHANNELS 6 Xposition Yposition Zposition Zrotation Xrotation Yrotation
                      JOINT LeftHandThumb2
                      {
                        OFFSET 0 -3.8 3.70001
                        CHANNELS 6 Xposition Yposition Zposition Zrotation Xrotation Yrotation
                        JOINT LeftHandThumb3
                        {
                          OFFSET 0 -3 2.7
                          CHANNELS 6 Xposition Yposition Zposition Zrotation Xrotation Yrotation
                          End Site
                          {
                            OFFSET 0 -2.3 1.8
                          }
                        }
                      }
                    }
                    JOINT LeftHandIndex
                    {
                      OFFSET 0 -1.89999 1.6
                      CHANNELS 6 Xposition Yposition Zposition Zrotation Xrotation Yrotation
                      JOINT LeftHandIndex1
                      {
                        OFFSET 0 -8.3 1.9
                        CHANNELS 6 Xposition Yposition Zposition Zrotation Xrotation Yrotation
                        JOINT LeftHandIndex2
                        {
                          OFFSET 0 -4.5 0
                          CHANNELS 6 Xposition Yposition Zposition Zrotation Xrotation Yrotation
                          JOINT LeftHandIndex3
                          {
                            OFFSET 0 -3.4 0
                            CHANNELS 6 Xposition Yposition Zposition Zrotation Xrotation Yrotation
                            End Site
                            {
                              OFFSET 0 -2.6 0
                            }
                          }
                        }
                      }
                    }
                    JOINT LeftHandMiddle
                    {
                      OFFSET -0.249994 -2.2 0.399998
                      CHANNELS 6 Xposition Yposition Zposition Zrotation Xrotation Yrotation
                      JOINT LeftHandMiddle1
                      {
                        OFFSET 0 -8.3 1
                        CHANNELS 6 Xposition Yposition Zposition Zrotation Xrotation Yrotation
                        JOINT LeftHandMiddle2
                        {
                          OFFSET -1.12789e-05 -4.65 0
                          CHANNELS 6 Xposition Yposition Zposition Zrotation Xrotation Yrotation
                          JOINT LeftHandMiddle3
                          {
                            OFFSET 0 -3.3 0
                            CHANNELS 6 Xposition Yposition Zposition Zrotation Xrotation Yrotation
                            End Site
                            {
                              OFFSET 0 -2.7 0
                            }
                          }
                        }
                      }
                    }
                    JOINT LeftHandRing
                    {
                      OFFSET -0.499993 -2.15 -0.8
                      CHANNELS 6 Xposition Yposition Zposition Zrotation Xrotation Yrotation
                      JOINT LeftHandRing1
                      {
                        OFFSET 0 -7.75 -0.200001
                        CHANNELS 6 Xposition Yposition Zposition Zrotation Xrotation Yrotation
                        JOINT LeftHandRing2
                        {
                          OFFSET 0 -3.8 0
                          CHANNELS 6 Xposition Yposition Zposition Zrotation Xrotation Yrotation
                          JOINT LeftHandRing3
                          {
                            OFFSET 0 -3.4 0
                            CHANNELS 6 Xposition Yposition Zposition Zrotation Xrotation Yrotation
                            End Site
                            {
                              OFFSET 0 -2.6 0
                            }
                          }
                        }
                      }
                    }
                    JOINT LeftHandPinky
                    {
                      OFFSET -0.749991 -1.75 -1.85
                      CHANNELS 6 Xposition Yposition Zposition Zrotation Xrotation Yrotation
                      JOINT LeftHandPinky1
                      {
                        OFFSET -1.27902e-05 -7.15 -1
                        CHANNELS 6 Xposition Yposition Zposition Zrotation Xrotation Yrotation
                        JOINT LeftHandPinky2
                        {
                          OFFSET 1.03979e-05 -3 0
                          CHANNELS 6 Xposition Yposition Zposition Zrotation Xrotation Yrotation
                          JOINT LeftHandPinky3
                          {
                            OFFSET 0 -2.35 0
                            CHANNELS 6 Xposition Yposition Zposition Zrotation Xrotation Yrotation
                            End Site
                            {
                              OFFSET 1.40649e-05 -2.09999 0
                            }
                          }
                        }
                      }
                    }
                  }
                }
              }
            }
          }
          JOINT RightShoulder
          {
            OFFSET -5 17 0.00114343
            CHANNELS 6 Xposition Yposition Zposition Zrotation Xrotation Yrotation
            JOINT RightShoulder2
            {
              OFFSET -6.45 0 0
              CHANNELS 6 Xposition Yposition Zposition Zrotation Xrotation Yrotation
              JOINT RightArm
              {
                OFFSET -6.45001 3.71447e-05 -0.000282482
                CHANNELS 6 Xposition Yposition Zposition Zrotation Xrotation Yrotation
                JOINT RightForeArm
                {
                  OFFSET 0 -32.4 -2
                  CHANNELS 6 Xposition Yposition Zposition Zrotation Xrotation Yrotation
                  JOINT RightHand
                  {
                    OFFSET 0 -25.65 2.00001
                    CHANNELS 6 Xposition Yposition Zposition Zrotation Xrotation Yrotation
                    JOINT RightHandThumb1
                    {
                      OFFSET 0.500005 -1.5 2.64999
                      CHANNELS 6 Xposition Yposition Zposition Zrotation Xrotation Yrotation
                      JOINT RightHandThumb2
                      {
                        OFFSET -1.03444e-05 -3.80001 3.7
                        CHANNELS 6 Xposition Yposition Zposition Zrotation Xrotation Yrotation
                        JOINT RightHandThumb3
                        {
                          OFFSET 0 -2.99999 2.7
                          CHANNELS 6 Xposition Yposition Zposition Zrotation Xrotation Yrotation
                          End Site
                          {
                            OFFSET 0 -2.3 1.8
                          }
                        }
                      }
                    }
                    JOINT RightHandIndex
                    {
                      OFFSET 0 -1.9 1.6
                      CHANNELS 6 Xposition Yposition Zposition Zrotation Xrotation Yrotation
                      JOINT RightHandIndex1
                      {
                        OFFSET 0 -8.29999 1.9
                        CHANNELS 6 Xposition Yposition Zposition Zrotation Xrotation Yrotation
                        JOINT RightHandIndex2
                        {
                          OFFSET 1.0246e-05 -4.5 0
                          CHANNELS 6 Xposition Yposition Zposition Zrotation Xrotation Yrotation
                          JOINT RightHandIndex3
                          {
                            OFFSET 0 -3.4 0
                            CHANNELS 6 Xposition Yposition Zposition Zrotation Xrotation Yrotation
                            End Site
                            {
                              OFFSET 0 -2.6 0
                            }
                          }
                        }
                      }
                    }
                    JOINT RightHandMiddle
                    {
                      OFFSET 0.250001 -2.2 0.399994
                      CHANNELS 6 Xposition Yposition Zposition Zrotation Xrotation Yrotation
                      JOINT RightHandMiddle1
                      {
                        OFFSET 0 -8.3 1
                        CHANNELS 6 Xposition Yposition Zposition Zrotation Xrotation Yrotation
                        JOINT RightHandMiddle2
                        {
                          OFFSET 0 -4.65 0
                          CHANNELS 6 Xposition Yposition Zposition Zrotation Xrotation Yrotation
                          JOINT RightHandMiddle3
                          {
                            OFFSET 0 -3.3 0
                            CHANNELS 6 Xposition Yposition Zposition Zrotation Xrotation Yrotation
                            End Site
                            {
                              OFFSET 1.36518e-05 -2.7 0
                            }
                          }
                        }
                      }
                    }
                    JOINT RightHandRing
                    {
                      OFFSET 0.500005 -2.15 -0.800005
                      CHANNELS 6 Xposition Yposition Zposition Zrotation Xrotation Yrotation
                      JOINT RightHandRing1
                      {
                        OFFSET -1.06941e-05 -7.75 -0.199996
                        CHANNELS 6 Xposition Yposition Zposition Zrotation Xrotation Yrotation
                        JOINT RightHandRing2
                        {
                          OFFSET 0 -3.8 0
                          CHANNELS 6 Xposition Yposition Zposition Zrotation Xrotation Yrotation
                          JOINT RightHandRing3
                          {
                            OFFSET 0 -3.4 0
                            CHANNELS 6 Xposition Yposition Zposition Zrotation Xrotation Yrotation
                            End Site
                            {
                              OFFSET 0 -2.6 0
                            }
                          }
                        }
                      }
                    }
                    JOINT RightHandPinky
                    {
                      OFFSET 0.75 -1.75 -1.85
                      CHANNELS 6 Xposition Yposition Zposition Zrotation Xrotation Yrotation
                      JOINT RightHandPinky1
                      {
                        OFFSET 0 -7.15 -0.999999
                        CHANNELS 6 Xposition Yposition Zposition Zrotation Xrotation Yrotation
                        JOINT RightHandPinky2
                        {
                          OFFSET 0 -3 0
                          CHANNELS 6 Xposition Yposition Zposition Zrotation Xrotation Yrotation
                          JOINT RightHandPinky3
                          {
                            OFFSET -1.50018e-05 -2.35 0
                            CHANNELS 6 Xposition Yposition Zposition Zrotation Xrotation Yrotation
                            End Site
                            {
                              OFFSET 1.02948e-05 -2.1 0
                            }
                          }
                        }
                      }
                    }
                  }
                }
              }
            }
          }
        }
      }
    }
  }
  JOINT LeftUpLeg
  {
    OFFSET 8 0 0
    CHANNELS 6 Xposition Yposition Zposition Zrotation Xrotation Yrotation
    JOINT LeftLeg
    {
      OFFSET 0 -45 -1
      CHANNELS 6 Xposition Yposition Zposition Zrotation Xrotation Yrotation
      JOINT LeftFoot
      {
        OFFSET 0 -41 -2
        CHANNELS 6 Xposition Yposition Zposition Zrotation Xrotation Yrotation
        JOINT LeftToeBase
        {
          OFFSET 0 -7.5 12.5
          CHANNELS 6 Xposition Yposition Zposition Zrotation Xrotation Yrotation
          JOINT LeftFootToe
          {
            OFFSET 0 0 4
            CHANNELS 6 Xposition Yposition Zposition Zrotation Xrotation Yrotation
            End Site
            {
              OFFSET 0 0 0
            }
          }
        }
      }
    }
  }
  JOINT RightUpLeg
  {
    OFFSET -8 0 0
    CHANNELS 6 Xposition Yposition Zposition Zrotation Xrotation Yrotation
    JOINT RightLeg
    {
      OFFSET 0 -45 -1.00001
      CHANNELS 6 Xposition Yposition Zposition Zrotation Xrotation Yrotation
      JOINT RightFoot
      {
        OFFSET 0 -41.0001 -2
        CHANNELS 6 Xposition Yposition Zposition Zrotation Xrotation Yrotation
        JOINT RightToeBase
        {
          OFFSET 0 -7.5 12.5
          CHANNELS 6 Xposition Yposition Zposition Zrotation Xrotation Yrotation
          JOINT RightFootToe
          {
            OFFSET 0 0 4
            CHANNELS 6 Xposition Yposition Zposition Zrotation Xrotation Yrotation
            End Site
            {
              OFFSET 0 0 0
            }
          }
        }
      }
    }
  }
}
MOTION
Frames:	3
Frame Time:	0.0111111
-32.6192 94.6664 25.7889 -1.47233 -12.7629 -134.204 0 8 -3.55271e-15 -0.943798 -1.11301 1.53106 -7.10543e-15 8 0 4.48763 2.42627 -10.4926 -7.10543e-15 8 3.55271e-15 -5.20333 4.22126 22.5022 0 8 -7.10543e-15 -1.07931 1.17534 9.45232 0 17 1.77636e-15 11.4803 4.54794 -21.5854 0 10.8 0 28.8948 3.04715 -52.9077 5 17 8.88178e-16 -0.000372454 -0.00501552 -3.84765 6.45 2.84217e-14 -6.21725e-15 -0.000529581 -0.00317214 -3.84838 6.45 0 1.77636e-15 24.9718 -18.9754 -45.5649 0 -32.4 -2 -12.4236 -21.6533 -12.2982 0 -25.65 2 10.6732 17.3897 -36.3635 -0.5 -1.5 2.65 -44.917 -20.2327 36.1138 0 -3.8 3.7 -0.00942606 40.6666 0.0109577 0 -3 2.7 -0.00690366 35.0697 0.00192992 7.10543e-15 -1.9 1.6 -1.76556e-30 -1.59028e-14 -6.36111e-15 -3.55271e-15 -8.3 1.9 -37.9538 9.14394 3.62534 7.10543e-15 -4.5 1.42109e-14 -0.000395537 -0.0113019 -0.00105343 0 -3.4 0 -2.64389e-05 -0.0111645 -0.030487 -0.25 -2.2 0.4 -1.76556e-30 -1.59028e-14 -6.36111e-15 0 -8.3 1 -71.4924 10.6 11.6092 -1.06581e-14 -4.65 1.42109e-14 -27.7216 -0.00564595 -0.00550442 -3.55271e-15 -3.3 -1.42109e-14 -20.7217 -0.00561872 0.0110408 -0.5 -2.15 -0.8 -1.76556e-30 -1.59028e-14 -6.36111e-15 0 -7.75 -0.2 -81.8291 6.58231 13.73 -3.55271e-15 -3.8 -1.42109e-14 -34.3927 -0.00105542 0.00527294 -7.10543e-15 -3.4 0 -24.7162 -0.000431586 -0.0119937 -0.75 -1.75 -1.85 -1.76556e-30 -1.59028e-14 -6.36111e-15 7.10543e-15 -7.15 -1 -78.5035 3.66221 11.784 -3.55271e-15 -3 0 -15.1433 -0.000101869 -0.00980155 3.55271e-15 -2.35 1.42109e-14 -12.6042 -0.016292 0.000358959 -5 17 3.10862e-15 0.00148712 -0.00295148 -1.04753 -6.45 0 4.66294e-15 0.0019229 -0.0028823 -1.04742 -6.45 -2.84217e-14 2.22045e-16 -27.7715 1.71955 -33.8292 7.10543e-15 -32.4 -2 3.46519 -18.235 5.99355 3.55271e-15 -25.65 2 -14.6064 1.6665 12.1477 0.5 -1.5 2.65 14.8811 10.5487 0.25701 -3.55271e-15 -3.8 3.7 -0.0107125 10.3973 0.00351697 0 -3 2.7 -0.00816614 6.08894 -0.00635444 -7.10543e-15 -1.9 1.6 -0.0961351 -0.00571247 -0.0221614 0 -8.3 1.9 21.1667 9.34729 -1.93712 -3.55271e-15 -4.5 3.55271e-15 11.8029 0.0188523 0.00108189 1.77636e-15 -3.4 0 10.177 0.0135602 0.00384155 0.25 -2.2 0.4 8.03222e-07 -0.00733294 -2.39335e-06 0 -8.3 1 32.2459 16.7304 -6.15201 -1.77636e-15 -4.65 1.77636e-15 7.85975 0.0200593 -0.00156145 0 -3.3 3.55271e-15 7.09328 0.0154056 0.00105618 0.5 -2.15 -0.8 -2.91731e-06 0.0058076 4.59736e-06 -7.10543e-15 -7.75 -0.2 50.7358 19.8164 -12.9312 5.32907e-15 -3.8 -5.32907e-15 60.1093 -0.000783556 0.00606595 1.42109e-14 -3.4 1.77636e-15 42.1621 0.00755703 0.00882237 0.75 -1.75 -1.85 3.68147e-06 4.83349e-05 -2.2276e-07 7.10543e-15 -7.15 -1 61.4487 15.1916 -14.0971 0 -3 -1.77636e-15 50.4963 -0.00181657 -0.0044416 1.42109e-14 -2.35 -1.77636e-15 34.8395 0.00337823 -0.0111474 8 -1.42109e-14 0 4.23365 -4.07008 42.7585 0 -45 -1 -0.00382314 4.8281 0.12128 1.42109e-14 -41 -2 -4.05121 1.81977 -43.9369 0 -7.5 12.5 4.30057e-09 1.55877e-08 -1.2257e-06 0 -4.44089e-16 4 4.6781 0.0368561 0.484892 -8 -1.42109e-14 0 -10.5838 -13.0767 -11.0545 -7.10543e-15 -45 -1 -0.00581879 7.94081 0.11748 0 -41 -2 -0.683105 -2.68692 12.3743 0 -7.5 12.5 -4.45491e-11 -0.000201139 -7.58206e-10 0 0 4 2.95422 -0.786795 0.00611699 
-32.4983 94.6663 25.6012 -1.44585 -12.9376 -133.955 0 8 -3.55271e-15 -0.701369 -1.06702 1.53206 0 8 1.77636e-15 4.44599 2.34895 -10.475 7.10543e-15 8 0 -5.21461 4.39932 22.4835 0 8 -3.55271e-15 -1.08555 1.22733 9.4295 0 17 6.21725e-15 11.5143 4.48671 -21.5472 -1.42109e-14 10.8 7.10543e-15 28.9309 2.90487 -52.7871 5 17 8.88178e-16 -0.00037583 -0.00501529 -3.88621 6.45 2.84217e-14 8.88178e-16 -0.000532878 -0.00316492 -3.88647 6.45 0 0 24.7699 -19.1337 -45.4476 1.42109e-14 -32.4 -2 -12.4061 -21.8686 -12.4453 0 -25.65 2 10.8483 17.5212 -36.8463 -0.5 -1.5 2.65 -45.0341 -19.8598 35.8845 0 -3.8 3.7 -0.00942685 40.8659 0.0119126 0 -3 2.7 -0.00710029 35.1649 0.00315781 7.10543e-15 -1.9 1.6 -9.54166e-15 4.77083e-15 -3.18055e-15 -7.10543e-15 -8.3 1.9 -37.7769 9.09178 3.58714 3.55271e-15 -4.5 0 -0.000399688 -0.0113513 -0.000992122 -7.10543e-15 -3.4 0 -2.77896e-05 -0.0112129 -0.0304119 -0.25 -2.2 0.4 -9.54166e-15 4.77083e-15 -3.18055e-15 -3.55271e-15 -8.3 1 -71.3412 10.6422 11.6002 -7.10543e-15 -4.65 -1.42109e-14 -27.6332 -0.0059299 -0.00556698 -7.10543e-15 -3.3 0 -20.6682 -0.00589759 0.0109992 -0.5 -2.15 -0.8 -9.54166e-15 4.77083e-15 -3.18055e-15 -3.55271e-15 -7.75 -0.2 -81.7403 6.61951 13.7265 3.55271e-15 -3.8 0 -34.3303 -0.00109981 0.00505836 0 -3.4 1.42109e-14 -24.679 -0.000302684 -0.012198 -0.75 -1.75 -1.85 -9.54166e-15 4.77083e-15 -3.18055e-15 0 -7.15 -1 -78.4218 3.67415 11.7611 3.55271e-15 -3 0 -15.0301 -6.86759e-05 -0.00991914 -7.10543e-15 -2.35 1.42109e-14 -12.524 -0.0163321 0.000331043 -5 17 0 0.0014897 -0.00295153 -0.997319 -6.45 0 1.9984e-15 0.00192599 -0.00288203 -0.997355 -6.45 2.84217e-14 -4.55191e-15 -27.718 1.49636 -33.8133 0 -32.4 -2 3.17282 -17.8782 6.79611 0 -25.65 2 -15.2739 1.10346 12.3629 0.5 -1.5 2.65 15.0534 10.7881 0.264719 0 -3.8 3.7 -0.0104504 10.3532 0.00352475 -7.10543e-15 -3 2.7 -0.00808944 6.0956 -0.00631308 0 -1.9 1.6 -0.0952749 -0.00571247 -0.0219695 0 -8.3 1.9 20.7546 9.13849 -1.85857 0 -4.5 0 12.1465 0.0221908 0.00118045 -1.77636e-15 -3.4 0 10.4316 0.0157711 0.00324179 0.25 -2.2 0.4 8.03222e-07 -0.00733294 -2.39335e-06 0 -8.3 1 31.7541 16.6533 -6.03936 -3.55271e-15 -4.65 -1.77636e-15 8.29507 0.0233009 -0.00192907 -1.77636e-15 -3.3 -1.77636e-15 7.43964 0.0177951 0.000853664 0.5 -2.15 -0.8 -2.91729e-06 0.00553525 4.59736e-06 -7.10543e-15 -7.75 -0.2 50.5327 19.8772 -12.9101 0 -3.8 0 60.1995 -0.00110596 0.00386721 -1.42109e-14 -3.4 -1.77636e-15 42.2445 0.0051791 0.00839643 0.75 -1.75 -1.85 3.68147e-06 4.83349e-05 -2.2276e-07 0 -7.15 -1 61.3606 15.2875 -14.1302 0 -3 -5.32907e-15 50.6907 -0.00183491 -0.00224441 0 -2.35 0 34.9753 0.00162401 -0.0113907 8 0 -1.77636e-15 4.20781 -3.8694 42.714 7.10543e-15 -45 -1 -0.00422413 4.96125 0.0149659 0 -41 -2 -3.8283 2.03905 -43.6028 1.42109e-14 -7.5 12.5 4.30057e-09 1.95202e-08 -1.2257e-06 1.42109e-14 8.88178e-16 4 4.6724 0.0229385 0.516701 -8 0 -3.55271e-15 -10.5983 -13.2398 -11.0394 0 -45 -1 -0.00653218 8.1853 0.127209 0 -41 -2 -0.821322 -2.88761 12.1805 -7.10543e-15 -7.5 12.5 -4.45491e-11 -0.000201139 -7.58209e-10 0 2.1684e-19 4 3.01639 -0.747362 -0.00550743 
-32.3786 94.6646 25.4095 -1.42401 -13.1109 -133.708 0 8 5.32907e-15 -0.449551 -1.01279 1.53843 0 8 0 4.38789 2.26101 -10.4628 -7.10543e-15 8 0 -5.23734 4.57471 22.4603 0 8 1.77636e-15 -1.09154 1.27779 9.40546 7.10543e-15 17 -8.88178e-16 11.5538 4.42882 -21.5084 0 10.8 0 28.9826 2.76692 -52.6664 5 17 3.55271e-15 -0.000379284 -0.00501505 -3.92567 6.45 2.84217e-14 3.55271e-15 -0.000536222 -0.00315774 -3.92652 6.45 0 -3.55271e-15 24.5789 -19.295 -45.3322 1.42109e-14 -32.4 -2 -12.3822 -22.0989 -12.621 -1.42109e-14 -25.65 2 11.0309 17.6881 -37.3606 -0.5 -1.5 2.65 -45.1598 -19.4946 35.5981 -7.10543e-15 -3.8 3.7 -0.00929115 40.983 0.0126393 -7.10543e-15 -3 2.7 -0.00717462 35.2639 0.00425882 1.06581e-14 -1.9 1.6 -7.95139e-15 -1.59028e-15 -3.18055e-15 -3.55271e-15 -8.3 1.9 -37.612 9.03862 3.55055 0 -4.5 0 -0.00040372 -0.0113967 -0.000931593 -7.10543e-15 -3.4 0 -2.91508e-05 -0.0112574 -0.0303349 -0.25 -2.2 0.4 -7.95139e-15 -1.59028e-15 -3.18055e-15 7.10543e-15 -8.3 1 -71.1818 10.6884 11.5919 3.55271e-15 -4.65 1.42109e-14 -27.5657 -0.00631291 -0.00560088 -3.55271e-15 -3.3 0 -20.6273 -0.00618224 0.0109485 -0.5 -2.15 -0.8 -7.95139e-15 -1.59028e-15 -3.18055e-15 0 -7.75 -0.2 -81.6526 6.65625 13.7235 3.55271e-15 -3.8 0 -34.2861 -0.00114951 0.00484882 -7.10543e-15 -3.4 1.42109e-14 -24.6527 -0.000177187 -0.0124046 -0.75 -1.75 -1.85 -7.95139e-15 -1.59028e-15 -3.18055e-15 -3.55271e-15 -7.15 -1 -78.3461 3.68561 11.7402 3.55271e-15 -3 -1.42109e-14 -14.8509 -4.43663e-05 -0.0100164 0 -2.35 0 -12.3966 -0.0163664 0.00030199 -5 17 -1.77636e-15 0.00149219 -0.00295157 -0.949077 -6.45 -2.84217e-14 2.44249e-15 0.00192901 -0.00288175 -0.948648 -6.45 -2.84217e-14 3.33067e-16 -27.6562 1.2841 -33.8096 -3.55271e-15 -32.4 -2 2.88467 -17.5719 7.5977 3.55271e-15 -25.65 2 -16.0333 0.563149 12.6774 0.5 -1.5 2.65 15.3199 11.0554 0.251465 0 -3.8 3.7 -0.0101858 10.3109 0.00352326 0 -3 2.7 -0.00799684 6.09348 -0.00625465 0 -1.9 1.6 -0.0944081 -0.00571247 -0.021777 0 -8.3 1.9 20.0659 8.85559 -1.73919 3.55271e-15 -4.5 0 12.5438 0.0264711 0.00131912 0 -3.4 0 10.7236 0.0188455 0.00264811 0.25 -2.2 0.4 8.03222e-07 -0.00733294 -2.39335e-06 0 -8.3 1 30.9199 16.5393 -5.85352 0 -4.65 -1.77636e-15 8.7443 0.027322 -0.00274199 0 -3.3 0 7.7894 0.0205242 0.000689961 0.5 -2.15 -0.8 -2.91726e-06 0.00526342 4.59736e-06 7.10543e-15 -7.75 -0.2 50.134 19.9702 -12.8521 0 -3.8 1.77636e-15 60.4377 -0.0014406 -0.00237473 0 -3.4 1.77636e-15 42.4597 -0.000470364 0.00796671 0.75 -1.75 -1.85 3.68147e-06 4.83349e-05 -2.2276e-07 7.10543e-15 -7.15 -1 61.1783 15.4458 -14.1739 -7.10543e-15 -3 3.55271e-15 50.8803 -0.00185343 -0.00588772 1.42109e-14 -2.35 -3.55271e-15 35.1094 -0.0026001 -0.011632 8 0 3.55271e-15 4.16646 -3.64752 42.6675 0 -45 -1 -0.00381989 5.06834 -0.0969859 0 -41 -2 -3.59531 2.27825 -43.3151 0 -7.5 12.5 4.30057e-09 2.35751e-08 -1.2257e-06 -1.42109e-14 4.44089e-16 4 4.65708 0.0163779 0.592893 -8 1.42109e-14 1.77636e-15 -10.6087 -13.4066 -11.0108 0 -45 -1 -0.00725672 8.44929 0.135907 0 -41 -2 -0.966448 -3.09991 11.9764 0 -7.5 12.5 -4.45491e-11 -0.000201139 -7.58212e-10 0 0 4 3.07438 -0.71007 0.00229385 
